<svg id="Layer_1" data-name="Layer 1" xmlns="http://www.w3.org/2000/svg" viewBox="0 0 921 1053" style="height: inherit;"><g id="Layer_2" data-name="Layer 2"><g id="Layer_1-2" data-name="Layer 1-2"><path d="M857,215.1,524.7,17.8a125.6,125.6,0,0,0-128.3,0L64.1,215.1A132.6,132.6,0,0,0,0,329.3V723.8A132.4,132.4,0,0,0,64.1,837.9l332.3,197.2a124.9,124.9,0,0,0,128.2,0L856.9,837.9A132.4,132.4,0,0,0,921,723.7V329.3A132.5,132.5,0,0,0,857,215.1Z" fill="#fff"/><path d="M857,215.1,524.7,17.8a125.6,125.6,0,0,0-128.3,0L64.1,215.1A132.6,132.6,0,0,0,0,329.3V723.8A132.4,132.4,0,0,0,64.1,837.9l332.3,197.2a124.9,124.9,0,0,0,128.2,0L856.9,837.9A132.4,132.4,0,0,0,921,723.7V329.3A132.5,132.5,0,0,0,857,215.1ZM408,1015,75.7,817.7A109.5,109.5,0,0,1,23,723.8V329.3a109.6,109.6,0,0,1,52.7-94L408,38a102.4,102.4,0,0,1,105,0L845,235.3a108.8,108.8,0,0,1,51.1,76c-11.1-23.5-35.9-29.9-64.8-13.3L517.1,492.6c-39.2,22.8-68,48.5-68.1,95.8V975.8c0,28.2,11.4,46.5,28.9,51.9a100.6,100.6,0,0,1-17.4,1.7A103.1,103.1,0,0,1,408,1015Z" fill="#2f3a3e"/><path d="M769.9,761.9l-82.8,49.5a6.1,6.1,0,0,0-3.8,5.4v21.8c0,2.6,1.8,3.7,4,2.4l84-51.1a6.3,6.3,0,0,0,2.5-6.6V764.2c0-2.5-1.9-3.5-3.9-2.3Z" fill="#3ab14a"/><path d="M593.7,579.7c2.6-1.4,4.8,0,4.9,3.8l.3,28.8a53.3,53.3,0,0,1,31.8-3.8c2,.5,2.9,3.3,2.1,6.6l-6.3,25.4a11,11,0,0,1-2.9,5,5.2,5.2,0,0,1-1.7,1.2,3.4,3.4,0,0,1-2.4.4,42.3,42.3,0,0,0-30.7,5,38.4,38.4,0,0,0-22.7,34.1c0,13.3,6.7,17,29.9,17.4,30.7.5,44,13.9,44.3,44.8a110,110,0,0,1-40.7,83l.5,28.3a10.6,10.6,0,0,1-4.8,8.7L578.5,878c-2.7,1.4-4.9,0-4.9-3.7V846.4c-14.4,6-29,7.4-38.3,3.7-1.7-.7-2.5-3.3-1.8-6.3l6.1-25.6a10.1,10.1,0,0,1,3-5.3,3.6,3.6,0,0,1,1.6-1.1,3.2,3.2,0,0,1,2.7,0,46.6,46.6,0,0,0,35.2-4.5,46,46,0,0,0,26-39.9c0-14.4-7.9-20.4-26.6-20.5-24.2,0-46.6-4.7-47.1-39.9a103.5,103.5,0,0,1,39-79l-1.2-29a10.6,10.6,0,0,1,4.9-8.8Z" fill="#fff"/></g></g></svg>